# Exported from ProBuilder
# http://www.procore3d.com/probuilder
# 5/10/2018 5:50:43 PM

mtllib ./MazeyBuilding.mtl
o MazeyBuilding

g Cube
v -87.5 -27 1.499996
v -155.9319 -27 -13.2337
v -87.5 -7 1.499996
v -155.9319 -7 -13.2337
v -155.9319 -27 -13.2337
v -147.5126 -27 -52.33762
v -155.9319 -7 -13.2337
v -147.5126 -7 -52.33762
v -147.5126 -27 -52.33762
v -79.08074 -27 -37.60392
v -147.5126 -7 -52.33762
v -79.08074 -7 -37.60392
v -79.08074 -27 -37.60392
v -87.5 -27 1.499996
v -79.08074 -7 -37.60392
v -87.5 -7 1.499996
v -87.5 -7 1.499996
v -155.9319 -7 -13.2337
v -79.08074 -7 -37.60392
v -147.5126 -7 -52.33762
v -79.08074 -27 -37.60392
v -147.5126 -27 -52.33762
v -87.5 -27 1.499996
v -155.9319 -27 -13.2337

vn -0.2104814 0 0.9775978
vn -0.2104814 0 0.9775978
vn -0.2104814 0 0.9775978
vn -0.2104814 0 0.9775978
vn -0.9775978 0 -0.2104814
vn -0.9775978 0 -0.2104814
vn -0.9775978 0 -0.2104814
vn -0.9775978 0 -0.2104814
vn 0.2104814 0 -0.9775978
vn 0.2104814 0 -0.9775978
vn 0.2104814 0 -0.9775978
vn 0.2104814 0 -0.9775978
vn 0.9775978 0 0.2104814
vn 0.9775978 0 0.2104814
vn 0.9775978 0 0.2104814
vn 0.9775978 0 0.2104814
vn 0 1 0
vn 0 1 0
vn 0 1 0
vn 0 1 0
vn 0 -1 0
vn 0 -1 0
vn 0 -1 0
vn 0 -1 0

vt 0 0
vt -70 0
vt 0 20
vt -70 20
vt 0 0
vt -40 0
vt 0 20
vt -40 20
vt 70 0
vt 0 0
vt 70 20
vt 0 20
vt 40 0
vt 0 0
vt 40 20
vt 0 20
vt 0 0
vt 70 0
vt 0 -40
vt 70 -40
vt 0 -40
vt -70 -40
vt 0 0
vt -70 0

g Cube
usemtl Default_Prototype
f 3/3/3 4/4/4 2/2/2 1/1/1
f 7/7/7 8/8/8 6/6/6 5/5/5
f 11/11/11 12/12/12 10/10/10 9/9/9
f 15/15/15 16/16/16 14/14/14 13/13/13
f 19/19/19 20/20/20 18/18/18 17/17/17
f 23/23/23 24/24/24 22/22/22 21/21/21

