# Exported from ProBuilder
# http://www.procore3d.com/probuilder
# 5/9/2018 5:48:34 PM

mtllib ./Stairs.mtl
o Stairs

g Stairs
v -62 2 5.999998
v -62 2 16.92
v -62 3.416667 5.999998
v -62 3.416667 16.92
v -62 3.416667 5.999998
v -62 3.416667 16.92
v -63.66667 3.416667 5.999998
v -63.66667 3.416667 16.92
v -63.66667 3.416667 5.999998
v -63.66667 3.416667 16.92
v -63.66667 4.833333 5.999998
v -63.66667 4.833333 16.92
v -63.66667 4.833333 5.999998
v -63.66667 4.833333 16.92
v -65.33334 4.833333 5.999998
v -65.33334 4.833333 16.92
v -65.33334 4.833333 5.999998
v -65.33334 4.833333 16.92
v -65.33334 6.25 5.999998
v -65.33334 6.25 16.92
v -65.33334 6.25 5.999998
v -65.33334 6.25 16.92
v -67 6.25 5.999998
v -67.00001 6.25 16.92
v -67 6.25 5.999998
v -67.00001 6.25 16.92
v -67 7.666667 5.999998
v -67.00001 7.666667 16.92
v -67 7.666667 5.999998
v -67.00001 7.666667 16.92
v -68.66667 7.666667 5.999998
v -68.66667 7.666667 16.92
v -68.66667 7.666667 5.999998
v -68.66667 7.666667 16.92
v -68.66667 9.083333 5.999998
v -68.66667 9.083333 16.92
v -68.66667 9.083333 5.999998
v -68.66667 9.083333 16.92
v -70.33334 9.083333 5.999998
v -70.33334 9.083333 16.92
v -70.33334 9.083333 5.999998
v -70.33334 9.083333 16.92
v -70.33334 10.5 5.999998
v -70.33334 10.5 16.92
v -70.33334 10.5 5.999998
v -70.33334 10.5 16.92
v -72 10.5 5.999998
v -72.00001 10.5 16.92
v -72 10.5 5.999998
v -72.00001 10.5 16.92
v -72 11.91667 5.999998
v -72.00001 11.91667 16.92
v -72 11.91667 5.999998
v -72.00001 11.91667 16.92
v -73.66667 11.91667 5.999998
v -73.66667 11.91667 16.92
v -73.66667 11.91667 5.999998
v -73.66667 11.91667 16.92
v -73.66667 13.33333 5.999998
v -73.66667 13.33333 16.92
v -73.66667 13.33333 5.999998
v -73.66667 13.33333 16.92
v -75.33334 13.33333 5.999998
v -75.33334 13.33333 16.92
v -75.33334 13.33333 5.999998
v -75.33334 13.33333 16.92
v -75.33334 14.75 5.999998
v -75.33334 14.75 16.92
v -75.33334 14.75 5.999998
v -75.33334 14.75 16.92
v -77 14.75 5.999998
v -77.00001 14.75 16.92
v -77 14.75 5.999998
v -77.00001 14.75 16.92
v -77 16.16667 5.999998
v -77.00001 16.16667 16.92
v -77 16.16667 5.999998
v -77.00001 16.16667 16.92
v -78.66667 16.16667 5.999998
v -78.66667 16.16667 16.92
v -78.66667 16.16667 5.999998
v -78.66667 16.16667 16.92
v -78.66667 17.58333 5.999998
v -78.66667 17.58333 16.92
v -78.66667 17.58333 5.999998
v -78.66667 17.58333 16.92
v -80.33334 17.58333 5.999998
v -80.33334 17.58333 16.92
v -80.33334 17.58333 5.999998
v -80.33334 17.58333 16.92
v -80.33334 19 5.999998
v -80.33334 19 16.92
v -80.33334 19 5.999998
v -80.33334 19 16.92
v -82 19 5.999998
v -82.00001 19 16.92
v -62 2 16.92
v -63.66667 2 16.92
v -62 3.416667 16.92
v -63.66667 3.416667 16.92
v -63.66667 2 16.92
v -65.33334 2 16.92
v -63.66667 3.416667 16.92
v -65.33334 4.833333 16.92
v -63.66667 3.416667 16.92
v -63.66667 4.833333 16.92
v -65.33334 4.833333 16.92
v -65.33334 2 16.92
v -67.00001 2 16.92
v -65.33334 4.833333 16.92
v -67.00001 6.25 16.92
v -65.33334 4.833333 16.92
v -65.33334 6.25 16.92
v -67.00001 6.25 16.92
v -67.00001 2 16.92
v -68.66667 2 16.92
v -67.00001 6.25 16.92
v -68.66667 7.666667 16.92
v -67.00001 6.25 16.92
v -67.00001 7.666667 16.92
v -68.66667 7.666667 16.92
v -68.66667 2 16.92
v -70.33334 2 16.92
v -68.66667 7.666667 16.92
v -70.33334 9.083334 16.92
v -68.66667 7.666667 16.92
v -68.66667 9.083334 16.92
v -70.33334 9.083334 16.92
v -70.33334 2 16.92
v -72.00001 2 16.92
v -70.33334 9.083334 16.92
v -72.00001 10.5 16.92
v -70.33334 9.083334 16.92
v -70.33334 10.5 16.92
v -72.00001 10.5 16.92
v -72.00001 2 16.92
v -73.66667 2 16.92
v -72.00001 10.5 16.92
v -73.66667 11.91667 16.92
v -72.00001 10.5 16.92
v -72.00001 11.91667 16.92
v -73.66667 11.91667 16.92
v -73.66667 2 16.92
v -75.33334 2 16.92
v -73.66667 11.91667 16.92
v -75.33334 13.33333 16.92
v -73.66667 11.91667 16.92
v -73.66667 13.33333 16.92
v -75.33334 13.33333 16.92
v -75.33334 2 16.92
v -77.00001 2 16.92
v -75.33334 13.33333 16.92
v -77.00001 14.75 16.92
v -75.33334 13.33333 16.92
v -75.33334 14.75 16.92
v -77.00001 14.75 16.92
v -77.00001 2 16.92
v -78.66667 2 16.92
v -77.00001 14.75 16.92
v -78.66667 16.16667 16.92
v -77.00001 14.75 16.92
v -77.00001 16.16667 16.92
v -78.66667 16.16667 16.92
v -78.66667 2 16.92
v -80.33334 2 16.92
v -78.66667 16.16667 16.92
v -80.33334 17.58333 16.92
v -78.66667 16.16667 16.92
v -78.66667 17.58333 16.92
v -80.33334 17.58333 16.92
v -80.33334 2 16.92
v -82.00001 2 16.92
v -80.33334 17.58333 16.92
v -82.00001 19 16.92
v -80.33334 17.58333 16.92
v -80.33334 19 16.92
v -82.00001 19 16.92
v -62 2 5.999998
v -63.66667 2 5.999998
v -62 3.416667 5.999998
v -63.66667 3.416667 5.999998
v -63.66667 2 5.999998
v -65.33334 2 5.999998
v -63.66667 3.416667 5.999998
v -65.33334 4.833333 5.999998
v -63.66667 3.416667 5.999998
v -63.66667 4.833333 5.999998
v -65.33334 4.833333 5.999998
v -65.33334 2 5.999998
v -67 2 5.999998
v -65.33334 4.833333 5.999998
v -67 6.25 5.999998
v -65.33334 4.833333 5.999998
v -65.33334 6.25 5.999998
v -67 6.25 5.999998
v -67 2 5.999998
v -68.66667 2 5.999998
v -67 6.25 5.999998
v -68.66667 7.666667 5.999998
v -67 6.25 5.999998
v -67 7.666667 5.999998
v -68.66667 7.666667 5.999998
v -68.66667 2 5.999998
v -70.33334 2 5.999998
v -68.66667 7.666667 5.999998
v -70.33334 9.083334 5.999998
v -68.66667 7.666667 5.999998
v -68.66667 9.083334 5.999998
v -70.33334 9.083334 5.999998
v -70.33334 2 5.999998
v -72 2 5.999998
v -70.33334 9.083334 5.999998
v -72 10.5 5.999998
v -70.33334 9.083334 5.999998
v -70.33334 10.5 5.999998
v -72 10.5 5.999998
v -72 2 5.999998
v -73.66667 2 5.999998
v -72 10.5 5.999998
v -73.66667 11.91667 5.999998
v -72 10.5 5.999998
v -72 11.91667 5.999998
v -73.66667 11.91667 5.999998
v -73.66667 2 5.999998
v -75.33334 2 5.999998
v -73.66667 11.91667 5.999998
v -75.33334 13.33333 5.999998
v -73.66667 11.91667 5.999998
v -73.66667 13.33333 5.999998
v -75.33334 13.33333 5.999998
v -75.33334 2 5.999998
v -77 2 5.999998
v -75.33334 13.33333 5.999998
v -77 14.75 5.999998
v -75.33334 13.33333 5.999998
v -75.33334 14.75 5.999998
v -77 14.75 5.999998
v -77 2 5.999998
v -78.66667 2 5.999998
v -77 14.75 5.999998
v -78.66667 16.16667 5.999998
v -77 14.75 5.999998
v -77 16.16667 5.999998
v -78.66667 16.16667 5.999998
v -78.66667 2 5.999998
v -80.33334 2 5.999998
v -78.66667 16.16667 5.999998
v -80.33334 17.58333 5.999998
v -78.66667 16.16667 5.999998
v -78.66667 17.58333 5.999998
v -80.33334 17.58333 5.999998
v -80.33334 2 5.999998
v -82 2 5.999998
v -80.33334 17.58333 5.999998
v -82 19 5.999998
v -80.33334 17.58333 5.999998
v -80.33334 19 5.999998
v -82 19 5.999998
v -82.00001 2 16.92
v -82 2 5.999998
v -82.00001 19 16.92
v -82 19 5.999998

vn 1 0 2.980232E-08
vn 1 0 2.980232E-08
vn 1 0 2.980232E-08
vn 1 0 2.980232E-08
vn 0 1 0
vn 0 1 0
vn 0 1 0
vn 0 1 0
vn 1 0 2.980232E-08
vn 1 0 2.980232E-08
vn 1 0 2.980232E-08
vn 1 0 2.980232E-08
vn 0 1 0
vn 0 1 0
vn 0 1 0
vn 0 1 0
vn 0.9999999 0 2.980232E-08
vn 0.9999999 0 2.980232E-08
vn 0.9999999 0 2.980232E-08
vn 0.9999999 0 2.980232E-08
vn 0 1 0
vn 0 1 0
vn 0 1 0
vn 0 1 0
vn 1 0 2.980232E-08
vn 1 0 2.980232E-08
vn 1 0 2.980232E-08
vn 1 0 2.980232E-08
vn 0 1 0
vn 0 1 0
vn 0 1 0
vn 0 1 0
vn 1 0 2.980232E-08
vn 1 0 2.980232E-08
vn 1 0 2.980232E-08
vn 1 0 2.980232E-08
vn 0 0.9999999 0
vn 0 0.9999999 0
vn 0 0.9999999 0
vn 0 0.9999999 0
vn 1 0 2.980232E-08
vn 1 0 2.980232E-08
vn 1 0 2.980232E-08
vn 1 0 2.980232E-08
vn 0 1 0
vn 0 1 0
vn 0 1 0
vn 0 1 0
vn 1 0 2.980232E-08
vn 1 0 2.980232E-08
vn 1 0 2.980232E-08
vn 1 0 2.980232E-08
vn 0 0.9999999 0
vn 0 0.9999999 0
vn 0 0.9999999 0
vn 0 0.9999999 0
vn 1 0 2.980232E-08
vn 1 0 2.980232E-08
vn 1 0 2.980232E-08
vn 1 0 2.980232E-08
vn 0 0.9999999 0
vn 0 0.9999999 0
vn 0 0.9999999 0
vn 0 0.9999999 0
vn 1 0 2.980232E-08
vn 1 0 2.980232E-08
vn 1 0 2.980232E-08
vn 1 0 2.980232E-08
vn 0 0.9999999 0
vn 0 0.9999999 0
vn 0 0.9999999 0
vn 0 0.9999999 0
vn 1 0 2.980232E-08
vn 1 0 2.980232E-08
vn 1 0 2.980232E-08
vn 1 0 2.980232E-08
vn 0 0.9999999 0
vn 0 0.9999999 0
vn 0 0.9999999 0
vn 0 0.9999999 0
vn 1 0 2.980232E-08
vn 1 0 2.980232E-08
vn 1 0 2.980232E-08
vn 1 0 2.980232E-08
vn 0 0.9999999 0
vn 0 0.9999999 0
vn 0 0.9999999 0
vn 0 0.9999999 0
vn 1 0 2.980232E-08
vn 1 0 2.980232E-08
vn 1 0 2.980232E-08
vn 1 0 2.980232E-08
vn 0 0.9999999 0
vn 0 0.9999999 0
vn 0 0.9999999 0
vn 0 0.9999999 0
vn -2.980232E-08 0 1
vn -2.980232E-08 0 1
vn -2.980232E-08 0 1
vn -2.980232E-08 0 1
vn -2.980232E-08 0 1
vn -2.980232E-08 0 1
vn -2.980232E-08 0 1
vn -2.980232E-08 0 1
vn -2.980232E-08 0 1
vn -2.980232E-08 0 1
vn -2.980232E-08 0 1
vn -2.980232E-08 0 1
vn -2.980232E-08 0 0.9999999
vn -2.980232E-08 0 1
vn -2.980232E-08 0 1
vn -2.980232E-08 0 1
vn -2.980232E-08 0 1
vn -2.980232E-08 0 1
vn -2.980232E-08 0 1
vn -2.980232E-08 0 1
vn -2.980232E-08 0 1
vn -2.980232E-08 0 1
vn -2.980232E-08 0 1
vn -2.980232E-08 0 1
vn -2.980232E-08 0 1
vn -2.980232E-08 0 1
vn -2.980232E-08 0 1
vn -2.980232E-08 0 1
vn -2.980232E-08 0 1
vn -2.980232E-08 0 1
vn -2.980232E-08 0 1
vn -2.980232E-08 0 1
vn -2.980232E-08 0 1
vn -2.980232E-08 0 0.9999999
vn -2.980232E-08 0 1
vn -2.980232E-08 0 1
vn -2.980232E-08 0 1
vn -2.980232E-08 0 1
vn -2.980232E-08 0 1
vn -2.980232E-08 0 1
vn -2.980232E-08 0 1
vn -2.980232E-08 0 0.9999999
vn -2.980232E-08 0 1
vn -2.980232E-08 0 1
vn -2.980232E-08 0 1
vn -2.980232E-08 0 1
vn -2.980232E-08 0 0.9999999
vn -2.980232E-08 0 1
vn -2.980232E-08 0 1
vn -2.980232E-08 0 0.9999999
vn -2.980232E-08 0 1
vn -2.980232E-08 0 1
vn -2.980232E-08 0 1
vn -2.980232E-08 0 1
vn -2.980232E-08 0 0.9999999
vn -2.980232E-08 0 1
vn -2.980232E-08 0 1
vn -2.980232E-08 0 1
vn -2.980232E-08 0 1
vn -2.980232E-08 0 1
vn -2.980232E-08 0 1
vn -2.980232E-08 0 1
vn -2.980232E-08 0 1
vn -2.980232E-08 0 1
vn -2.980232E-08 0 1
vn -2.980232E-08 0 1
vn -2.980232E-08 0 1
vn -2.980232E-08 0 1
vn -2.980232E-08 0 1
vn -2.980232E-08 0 1
vn -2.980232E-08 0 1
vn -2.980232E-08 0 1
vn -2.980232E-08 0 1
vn -2.980232E-08 0 1
vn -2.980232E-08 0 1
vn -2.980232E-08 0 1
vn -2.980232E-08 0 1
vn -2.980232E-08 0 1
vn -2.980232E-08 0 1
vn -2.980232E-08 0 1
vn -2.980232E-08 0 1
vn 2.980232E-08 0 -1
vn 2.980232E-08 0 -1
vn 2.980232E-08 0 -1
vn 2.980232E-08 0 -1
vn 2.980232E-08 0 -1
vn 2.980232E-08 0 -1
vn 2.980232E-08 0 -1
vn 2.980232E-08 0 -1
vn 2.980232E-08 0 -1
vn 2.980232E-08 0 -1
vn 2.980232E-08 0 -1
vn 2.980232E-08 0 -1
vn 2.980232E-08 0 -1
vn 2.980232E-08 0 -1
vn 2.980232E-08 0 -0.9999999
vn 2.980232E-08 0 -1
vn 2.980232E-08 0 -1
vn 2.980232E-08 0 -1
vn 2.980232E-08 0 -1
vn 2.980232E-08 0 -1
vn 2.980232E-08 0 -1
vn 2.980232E-08 0 -1
vn 2.980232E-08 0 -1
vn 2.980232E-08 0 -1
vn 2.980232E-08 0 -1
vn 2.980232E-08 0 -1
vn 2.980232E-08 0 -1
vn 2.980232E-08 0 -1
vn 2.980232E-08 0 -1
vn 2.980232E-08 0 -1
vn 2.980232E-08 0 -1
vn 2.980232E-08 0 -1
vn 2.980232E-08 0 -1
vn 2.980232E-08 0 -1
vn 2.980232E-08 0 -1
vn 2.980232E-08 0 -0.9999999
vn 2.980232E-08 0 -1
vn 2.980232E-08 0 -1
vn 2.980232E-08 0 -1
vn 2.980232E-08 0 -0.9999999
vn 2.980232E-08 0 -1
vn 2.980232E-08 0 -1
vn 2.980232E-08 0 -1
vn 2.980232E-08 0 -1
vn 2.980232E-08 0 -1
vn 2.980232E-08 0 -1
vn 2.980232E-08 0 -1
vn 2.980232E-08 0 -0.9999999
vn 2.980232E-08 0 -0.9999999
vn 2.980232E-08 0 -1
vn 2.980232E-08 0 -1
vn 2.980232E-08 0 -1
vn 2.980232E-08 0 -1
vn 2.980232E-08 0 -1
vn 2.980232E-08 0 -1
vn 2.980232E-08 0 -1
vn 2.980232E-08 0 -0.9999999
vn 2.980232E-08 0 -1
vn 2.980232E-08 0 -1
vn 2.980232E-08 0 -1
vn 2.980232E-08 0 -1
vn 2.980232E-08 0 -1
vn 2.980232E-08 0 -1
vn 2.980232E-08 0 -1
vn 2.980232E-08 0 -1
vn 2.980232E-08 0 -1
vn 2.980232E-08 0 -1
vn 2.980232E-08 0 -1
vn 2.980232E-08 0 -1
vn 2.980232E-08 0 -1
vn 2.980232E-08 0 -1
vn 2.980232E-08 0 -1
vn 2.980232E-08 0 -1
vn 2.980232E-08 0 -1
vn 2.980232E-08 0 -1
vn 2.980232E-08 0 -1
vn 2.980232E-08 0 -1
vn 2.980232E-08 0 -1
vn 2.980232E-08 0 -1
vn 2.980232E-08 0 -1
vn 2.980232E-08 0 -1
vn -1 0 -2.980232E-08
vn -1 0 -2.980232E-08
vn -1 0 -2.980232E-08
vn -1 0 -2.980232E-08

vt 0 0
vt -10.92 0
vt 0 1.416667
vt -10.92 1.416667
vt 0 0
vt -10.92 0
vt 0 1.666667
vt -10.92 1.666667
vt 0 1.416667
vt -10.92 1.416667
vt 0 2.833333
vt -10.92 2.833333
vt 0 1.666667
vt -10.92 1.666667
vt 0 3.333333
vt -10.92 3.333333
vt 0 2.833333
vt -10.92 2.833333
vt 0 4.25
vt -10.92 4.25
vt 0 3.333333
vt -10.92 3.333333
vt 0 5
vt -10.92 5
vt 0 4.25
vt -10.92 4.25
vt 0 5.666667
vt -10.92 5.666667
vt 0 5
vt -10.92 5
vt 0 6.666667
vt -10.92 6.666667
vt 0 5.666667
vt -10.92 5.666667
vt 0 7.083333
vt -10.92 7.083333
vt 0 6.666667
vt -10.92 6.666667
vt 0 8.333333
vt -10.92 8.333333
vt 0 7.083333
vt -10.92 7.083333
vt 0 8.5
vt -10.92 8.5
vt 0 8.333333
vt -10.92 8.333333
vt 0 10
vt -10.92 10
vt 0 8.5
vt -10.92 8.5
vt 0 9.916666
vt -10.92 9.916666
vt 0 10
vt -10.92 10
vt 0 11.66667
vt -10.92 11.66667
vt 0 9.916666
vt -10.92 9.916666
vt 0 11.33333
vt -10.92 11.33333
vt 0 11.66667
vt -10.92 11.66667
vt 0 13.33333
vt -10.92 13.33333
vt 0 11.33333
vt -10.92 11.33333
vt 0 12.75
vt -10.92 12.75
vt 0 13.33333
vt -10.92 13.33333
vt 0 15
vt -10.92 15
vt 0 12.75
vt -10.92 12.75
vt 0 14.16667
vt -10.92 14.16667
vt 0 15
vt -10.92 15
vt 0 16.66667
vt -10.92 16.66667
vt 0 14.16667
vt -10.92 14.16667
vt 0 15.58333
vt -10.92 15.58333
vt 0 16.66667
vt -10.92 16.66667
vt 0 18.33333
vt -10.92 18.33333
vt 0 15.58333
vt -10.92 15.58333
vt 0 17
vt -10.92 17
vt 0 18.33333
vt -10.92 18.33333
vt 0 20
vt -10.92 20
vt -9.264927E-13 6.230619E-13
vt 1.666667 6.230619E-13
vt -9.264927E-13 1.416667
vt 1.666667 1.416667
vt 1.666667 6.230619E-13
vt 3.333333 6.230619E-13
vt 1.666667 1.416667
vt 3.333333 2.833333
vt 1.666667 1.416667
vt 1.666667 2.833333
vt 3.333333 2.833333
vt 3.333333 6.230619E-13
vt 5 6.230619E-13
vt 3.333333 2.833333
vt 5 4.25
vt 3.333333 2.833333
vt 3.333333 4.25
vt 5 4.25
vt 5 6.230619E-13
vt 6.666667 6.230619E-13
vt 5 4.25
vt 6.666667 5.666667
vt 5 4.25
vt 5 5.666667
vt 6.666667 5.666667
vt 6.666667 6.230619E-13
vt 8.333333 6.230619E-13
vt 6.666667 5.666667
vt 8.333333 7.083333
vt 6.666667 5.666667
vt 6.666667 7.083333
vt 8.333333 7.083333
vt 8.333333 6.230619E-13
vt 10 6.230619E-13
vt 8.333333 7.083333
vt 10 8.5
vt 8.333333 7.083333
vt 8.333333 8.5
vt 10 8.5
vt 10 6.230619E-13
vt 11.66667 6.230619E-13
vt 10 8.5
vt 11.66667 9.916667
vt 10 8.5
vt 10 9.916667
vt 11.66667 9.916667
vt 11.66667 6.230619E-13
vt 13.33333 6.230619E-13
vt 11.66667 9.916667
vt 13.33333 11.33333
vt 11.66667 9.916667
vt 11.66667 11.33333
vt 13.33333 11.33333
vt 13.33333 6.230619E-13
vt 15 6.230619E-13
vt 13.33333 11.33333
vt 15 12.75
vt 13.33333 11.33333
vt 13.33333 12.75
vt 15 12.75
vt 15 6.230619E-13
vt 16.66667 6.230619E-13
vt 15 12.75
vt 16.66667 14.16667
vt 15 12.75
vt 15 14.16667
vt 16.66667 14.16667
vt 16.66667 6.230619E-13
vt 18.33333 6.230619E-13
vt 16.66667 14.16667
vt 18.33333 15.58333
vt 16.66667 14.16667
vt 16.66667 15.58333
vt 18.33333 15.58333
vt 18.33333 6.230619E-13
vt 20 6.230619E-13
vt 18.33333 15.58333
vt 20 17
vt 18.33333 15.58333
vt 18.33333 17
vt 20 17
vt 0 0
vt 1.666667 0
vt 0 1.416667
vt 1.666667 1.416667
vt 1.666667 0
vt 3.333333 0
vt 1.666667 1.416667
vt 3.333333 2.833333
vt 1.666667 1.416667
vt 1.666667 2.833333
vt 3.333333 2.833333
vt 3.333333 0
vt 5 0
vt 3.333333 2.833333
vt 5 4.25
vt 3.333333 2.833333
vt 3.333333 4.25
vt 5 4.25
vt 5 0
vt 6.666667 0
vt 5 4.25
vt 6.666667 5.666667
vt 5 4.25
vt 5 5.666667
vt 6.666667 5.666667
vt 6.666667 0
vt 8.333333 0
vt 6.666667 5.666667
vt 8.333333 7.083333
vt 6.666667 5.666667
vt 6.666667 7.083333
vt 8.333333 7.083333
vt 8.333333 0
vt 10 0
vt 8.333333 7.083333
vt 10 8.5
vt 8.333333 7.083333
vt 8.333333 8.5
vt 10 8.5
vt 10 0
vt 11.66667 0
vt 10 8.5
vt 11.66667 9.916667
vt 10 8.5
vt 10 9.916667
vt 11.66667 9.916667
vt 11.66667 0
vt 13.33333 0
vt 11.66667 9.916667
vt 13.33333 11.33333
vt 11.66667 9.916667
vt 11.66667 11.33333
vt 13.33333 11.33333
vt 13.33333 0
vt 15 0
vt 13.33333 11.33333
vt 15 12.75
vt 13.33333 11.33333
vt 13.33333 12.75
vt 15 12.75
vt 15 0
vt 16.66667 0
vt 15 12.75
vt 16.66667 14.16667
vt 15 12.75
vt 15 14.16667
vt 16.66667 14.16667
vt 16.66667 0
vt 18.33333 0
vt 16.66667 14.16667
vt 18.33333 15.58333
vt 16.66667 14.16667
vt 16.66667 15.58333
vt 18.33333 15.58333
vt 18.33333 0
vt 20 0
vt 18.33333 15.58333
vt 20 17
vt 18.33333 15.58333
vt 18.33333 17
vt 20 17
vt 10.92 0
vt 0 0
vt 10.92 17
vt 0 17

g Stairs_0
usemtl Default_Prototype
f 3/3/3 4/4/4 2/2/2 1/1/1
f 7/7/7 8/8/8 6/6/6 5/5/5
f 11/11/11 12/12/12 10/10/10 9/9/9
f 15/15/15 16/16/16 14/14/14 13/13/13
f 19/19/19 20/20/20 18/18/18 17/17/17
f 23/23/23 24/24/24 22/22/22 21/21/21
f 27/27/27 28/28/28 26/26/26 25/25/25
f 31/31/31 32/32/32 30/30/30 29/29/29
f 35/35/35 36/36/36 34/34/34 33/33/33
f 39/39/39 40/40/40 38/38/38 37/37/37
f 43/43/43 44/44/44 42/42/42 41/41/41
f 47/47/47 48/48/48 46/46/46 45/45/45
f 51/51/51 52/52/52 50/50/50 49/49/49
f 55/55/55 56/56/56 54/54/54 53/53/53
f 59/59/59 60/60/60 58/58/58 57/57/57
f 63/63/63 64/64/64 62/62/62 61/61/61
f 67/67/67 68/68/68 66/66/66 65/65/65
f 71/71/71 72/72/72 70/70/70 69/69/69
f 75/75/75 76/76/76 74/74/74 73/73/73
f 79/79/79 80/80/80 78/78/78 77/77/77
f 83/83/83 84/84/84 82/82/82 81/81/81
f 87/87/87 88/88/88 86/86/86 85/85/85
f 91/91/91 92/92/92 90/90/90 89/89/89
f 95/95/95 96/96/96 94/94/94 93/93/93
f 99/99/99 100/100/100 98/98/98 97/97/97
f 103/103/103 104/104/104 102/102/102 101/101/101
f 110/110/110 111/111/111 109/109/109 108/108/108
f 117/117/117 118/118/118 116/116/116 115/115/115
f 124/124/124 125/125/125 123/123/123 122/122/122
f 131/131/131 132/132/132 130/130/130 129/129/129
f 138/138/138 139/139/139 137/137/137 136/136/136
f 145/145/145 146/146/146 144/144/144 143/143/143
f 152/152/152 153/153/153 151/151/151 150/150/150
f 159/159/159 160/160/160 158/158/158 157/157/157
f 166/166/166 167/167/167 165/165/165 164/164/164
f 173/173/173 174/174/174 172/172/172 171/171/171
f 181/181/181 180/180/180 178/178/178 179/179/179
f 185/185/185 184/184/184 182/182/182 183/183/183
f 192/192/192 191/191/191 189/189/189 190/190/190
f 199/199/199 198/198/198 196/196/196 197/197/197
f 206/206/206 205/205/205 203/203/203 204/204/204
f 213/213/213 212/212/212 210/210/210 211/211/211
f 220/220/220 219/219/219 217/217/217 218/218/218
f 227/227/227 226/226/226 224/224/224 225/225/225
f 234/234/234 233/233/233 231/231/231 232/232/232
f 241/241/241 240/240/240 238/238/238 239/239/239
f 248/248/248 247/247/247 245/245/245 246/246/246
f 255/255/255 254/254/254 252/252/252 253/253/253
f 261/261/261 262/262/262 260/260/260 259/259/259

g Stairs_1
usemtl Default_Prototype
f 105/105/105 106/106/106 107/107/107
f 112/112/112 113/113/113 114/114/114
f 119/119/119 120/120/120 121/121/121
f 126/126/126 127/127/127 128/128/128
f 133/133/133 134/134/134 135/135/135
f 140/140/140 141/141/141 142/142/142
f 147/147/147 148/148/148 149/149/149
f 154/154/154 155/155/155 156/156/156
f 161/161/161 162/162/162 163/163/163
f 168/168/168 169/169/169 170/170/170
f 175/175/175 176/176/176 177/177/177
f 188/188/188 187/187/187 186/186/186
f 195/195/195 194/194/194 193/193/193
f 202/202/202 201/201/201 200/200/200
f 209/209/209 208/208/208 207/207/207
f 216/216/216 215/215/215 214/214/214
f 223/223/223 222/222/222 221/221/221
f 230/230/230 229/229/229 228/228/228
f 237/237/237 236/236/236 235/235/235
f 244/244/244 243/243/243 242/242/242
f 251/251/251 250/250/250 249/249/249
f 258/258/258 257/257/257 256/256/256

